<svg width="266" height="49" viewBox="0 0 266 49" fill="none" xmlns="http://www.w3.org/2000/svg">
<path d="M29.16 31H17.84V29.24L21.48 27.92V17.96H7.72V27.92L11.36 29.24V31H0.0400001V29.24L3.68 27.92V5.84L0.0400001 4.52V2.76H11.36V4.52L7.72 5.84V14.88H21.48V5.84L17.84 4.52V2.76H29.16V4.52L25.52 5.84V27.92L29.16 29.24V31ZM52.8831 28.28V30.68C51.8431 31.1867 50.6965 31.44 49.4431 31.44C48.1898 31.44 47.2831 31.2 46.7231 30.72C46.1898 30.24 45.8831 29.5467 45.8031 28.64C44.3365 30.5067 42.4031 31.44 40.0031 31.44C37.6298 31.44 35.8298 30.96 34.6031 30C33.3765 29.04 32.7631 27.6933 32.7631 25.96C32.7631 22.6267 35.0831 20.7067 39.7231 20.2L45.7631 19.56V18.4C45.7631 16.8533 45.4431 15.68 44.8031 14.88C44.1631 14.08 43.1498 13.68 41.7631 13.68C39.2031 13.68 37.1231 13.96 35.5231 14.52L34.7231 14.8L34.0031 12.24C34.7498 11.8133 35.8831 11.4267 37.4031 11.08C38.9231 10.7067 40.3365 10.52 41.6431 10.52C44.4965 10.52 46.5231 11.0933 47.7231 12.24C48.9231 13.36 49.5231 14.9467 49.5231 17V28.28H52.8831ZM39.9231 22.8C38.9098 22.9333 38.0965 23.24 37.4831 23.72C36.8965 24.2 36.6031 24.8533 36.6031 25.68C36.6031 26.48 36.9231 27.12 37.5631 27.6C38.2298 28.0533 39.1498 28.28 40.3231 28.28C42.5365 28.28 44.3498 27.68 45.7631 26.48V22.16L39.9231 22.8ZM79.2241 31H68.7041V29.28L71.9041 27.96V18.4C71.9041 16.8267 71.6374 15.6533 71.1041 14.88C70.5974 14.1067 69.6641 13.72 68.3041 13.72C66.1174 13.72 64.1574 14.5867 62.4241 16.32V27.96L65.8241 29.28V31H55.3041V29.28L58.6641 27.96V13.68H55.3041V11.28C56.3441 10.7733 57.5307 10.52 58.8641 10.52C60.1974 10.52 61.1041 10.8133 61.5841 11.4C62.0907 11.9867 62.3707 12.8667 62.4241 14.04C62.7974 13.56 63.3574 13.0133 64.1041 12.4C65.6774 11.1467 67.4774 10.52 69.5041 10.52C71.5307 10.52 73.0641 11.1067 74.1041 12.28C75.1441 13.4267 75.6641 15 75.6641 17V27.96L79.2241 29.28V31ZM92.115 31H81.595V29.28L84.955 27.96V13.68H81.595V11.28C82.635 10.7733 83.835 10.52 85.195 10.52C86.5817 10.52 87.515 10.8533 87.995 11.52C88.475 12.16 88.715 13.1467 88.715 14.48V27.96L92.115 29.28V31ZM88.875 5.92C88.2617 6.53333 87.515 6.84 86.635 6.84C85.755 6.84 85.0083 6.53333 84.395 5.92C83.7817 5.30667 83.475 4.56 83.475 3.68C83.475 2.8 83.7817 2.05333 84.395 1.44C85.0083 0.826666 85.755 0.519999 86.635 0.519999C87.515 0.519999 88.2617 0.826666 88.875 1.44C89.4883 2.05333 89.795 2.8 89.795 3.68C89.795 4.56 89.4883 5.30667 88.875 5.92ZM120.092 31H106.212V29.24L109.852 27.92V5.84L106.212 4.52V2.76H117.932C121.505 2.76 124.145 3.8 125.852 5.88C126.812 7.05333 127.292 8.49333 127.292 10.2C127.292 12.7067 126.439 14.6133 124.732 15.92C127.879 17.0667 129.452 19.3867 129.452 22.88C129.452 24.32 129.159 25.5867 128.572 26.68C127.985 27.7733 127.212 28.6267 126.252 29.24C124.385 30.4133 122.332 31 120.092 31ZM113.892 28H118.212C120.665 28 122.492 27.6267 123.692 26.88C124.919 26.1333 125.532 24.84 125.532 23C125.532 21.16 125.012 19.84 123.972 19.04C122.932 18.24 121.599 17.84 119.972 17.84H113.892V28ZM113.932 15.2H117.812C121.519 15.2 123.372 13.5467 123.372 10.24C123.372 8.53333 122.759 7.36 121.532 6.72C120.305 6.08 118.479 5.76 116.052 5.76H113.932V15.2ZM153.157 28.28V30.68C152.117 31.1867 150.97 31.44 149.717 31.44C148.463 31.44 147.557 31.2 146.997 30.72C146.463 30.24 146.157 29.5467 146.077 28.64C144.61 30.5067 142.677 31.44 140.277 31.44C137.903 31.44 136.103 30.96 134.877 30C133.65 29.04 133.037 27.6933 133.037 25.96C133.037 22.6267 135.357 20.7067 139.997 20.2L146.037 19.56V18.4C146.037 16.8533 145.717 15.68 145.077 14.88C144.437 14.08 143.423 13.68 142.037 13.68C139.477 13.68 137.397 13.96 135.797 14.52L134.997 14.8L134.277 12.24C135.023 11.8133 136.157 11.4267 137.677 11.08C139.197 10.7067 140.61 10.52 141.917 10.52C144.77 10.52 146.797 11.0933 147.997 12.24C149.197 13.36 149.797 14.9467 149.797 17V28.28H153.157ZM140.197 22.8C139.183 22.9333 138.37 23.24 137.757 23.72C137.17 24.2 136.877 24.8533 136.877 25.68C136.877 26.48 137.197 27.12 137.837 27.6C138.503 28.0533 139.423 28.28 140.597 28.28C142.81 28.28 144.623 27.68 146.037 26.48V22.16L140.197 22.8ZM170.538 16.72H168.018L167.458 14.72C166.764 14.0533 165.698 13.72 164.258 13.72C162.818 13.72 161.698 13.9067 160.898 14.28C160.124 14.6533 159.738 15.16 159.738 15.8C159.738 16.4133 160.031 17 160.618 17.56C161.204 18.0933 161.804 18.4933 162.418 18.76C163.031 19.0267 164.124 19.4267 165.697 19.96C167.271 20.4933 168.551 21.2 169.538 22.08C170.551 22.96 171.058 24.12 171.058 25.56C171.058 27.48 170.351 28.9467 168.938 29.96C167.551 30.9467 165.951 31.44 164.138 31.44C162.351 31.44 160.804 31.2133 159.498 30.76C158.218 30.3067 157.298 29.8533 156.738 29.4L155.938 28.72V24.44H158.338L159.178 26.92C159.204 27 159.417 27.1333 159.817 27.32C161.071 27.96 162.324 28.28 163.578 28.28C164.831 28.28 165.791 28.0933 166.458 27.72C167.124 27.32 167.458 26.7733 167.458 26.08C167.458 25.36 167.084 24.68 166.338 24.04C165.591 23.4 164.338 22.8267 162.578 22.32C160.844 21.7867 159.378 21.0267 158.178 20.04C157.004 19.0267 156.418 17.8533 156.418 16.52C156.418 14.52 157.111 13.0267 158.498 12.04C159.911 11.0267 161.724 10.52 163.938 10.52C165.031 10.52 166.124 10.6533 167.218 10.92C168.311 11.1867 169.138 11.4533 169.698 11.72L170.538 12.12V16.72ZM189.639 16.72H187.119L186.559 14.72C185.866 14.0533 184.799 13.72 183.359 13.72C181.919 13.72 180.799 13.9067 179.999 14.28C179.226 14.6533 178.839 15.16 178.839 15.8C178.839 16.4133 179.132 17 179.719 17.56C180.306 18.0933 180.906 18.4933 181.519 18.76C182.132 19.0267 183.226 19.4267 184.799 19.96C186.372 20.4933 187.652 21.2 188.639 22.08C189.652 22.96 190.159 24.12 190.159 25.56C190.159 27.48 189.452 28.9467 188.039 29.96C186.652 30.9467 185.052 31.44 183.239 31.44C181.452 31.44 179.906 31.2133 178.599 30.76C177.319 30.3067 176.399 29.8533 175.839 29.4L175.039 28.72V24.44H177.439L178.279 26.92C178.306 27 178.519 27.1333 178.919 27.32C180.172 27.96 181.426 28.28 182.679 28.28C183.932 28.28 184.892 28.0933 185.559 27.72C186.226 27.32 186.559 26.7733 186.559 26.08C186.559 25.36 186.186 24.68 185.439 24.04C184.692 23.4 183.439 22.8267 181.679 22.32C179.946 21.7867 178.479 21.0267 177.279 20.04C176.106 19.0267 175.519 17.8533 175.519 16.52C175.519 14.52 176.212 13.0267 177.599 12.04C179.012 11.0267 180.826 10.52 183.039 10.52C184.132 10.52 185.226 10.6533 186.319 10.92C187.412 11.1867 188.239 11.4533 188.799 11.72L189.639 12.12V16.72ZM213.821 28.28V30.68C212.781 31.1867 211.634 31.44 210.381 31.44C209.127 31.44 208.221 31.2 207.661 30.72C207.127 30.24 206.821 29.5467 206.741 28.64C205.274 30.5067 203.341 31.44 200.941 31.44C198.567 31.44 196.767 30.96 195.541 30C194.314 29.04 193.701 27.6933 193.701 25.96C193.701 22.6267 196.021 20.7067 200.661 20.2L206.701 19.56V18.4C206.701 16.8533 206.381 15.68 205.741 14.88C205.101 14.08 204.087 13.68 202.701 13.68C200.141 13.68 198.061 13.96 196.461 14.52L195.661 14.8L194.941 12.24C195.687 11.8133 196.821 11.4267 198.341 11.08C199.861 10.7067 201.274 10.52 202.581 10.52C205.434 10.52 207.461 11.0933 208.661 12.24C209.861 13.36 210.461 14.9467 210.461 17V28.28H213.821ZM200.861 22.8C199.847 22.9333 199.034 23.24 198.421 23.72C197.834 24.2 197.541 24.8533 197.541 25.68C197.541 26.48 197.861 27.12 198.501 27.6C199.167 28.0533 200.087 28.28 201.261 28.28C203.474 28.28 205.287 27.68 206.701 26.48V22.16L200.861 22.8ZM252.882 31H242.362V29.28L245.562 27.96V18.4C245.562 16.8267 245.295 15.6533 244.762 14.88C244.255 14.1067 243.322 13.72 241.962 13.72C239.828 13.72 238.002 14.48 236.482 16C236.562 16.32 236.602 16.6533 236.602 17V27.96L240.162 29.28V31H229.642V29.28L232.842 27.96V18.4C232.842 16.8267 232.575 15.6533 232.042 14.88C231.535 14.1067 230.602 13.72 229.242 13.72C227.055 13.72 225.095 14.5867 223.362 16.32V27.96L226.762 29.28V31H216.242V29.28L219.602 27.96V13.68H216.242V11.28C217.282 10.7733 218.468 10.52 219.802 10.52C221.135 10.52 222.042 10.8133 222.522 11.4C223.028 11.9867 223.308 12.8667 223.362 14.04C223.735 13.56 224.295 13.0133 225.042 12.4C226.615 11.1467 228.388 10.52 230.362 10.52C233.295 10.52 235.215 11.6933 236.122 14.04C238.068 11.6933 240.388 10.52 243.082 10.52C245.162 10.52 246.722 11.1067 247.762 12.28C248.802 13.4267 249.322 15 249.322 17V27.96L252.882 29.28V31ZM264.308 3.96C265.294 4.94666 265.788 6.13333 265.788 7.52C265.788 8.90667 265.294 10.0933 264.308 11.08C263.321 12.04 262.134 12.52 260.748 12.52C259.361 12.52 258.188 12.04 257.228 11.08C256.268 10.0933 255.788 8.90667 255.788 7.52C255.788 6.13333 256.268 4.94666 257.228 3.96C258.188 2.97333 259.361 2.48 260.748 2.48C262.134 2.48 263.321 2.97333 264.308 3.96ZM262.908 9.68C263.521 9.09333 263.828 8.37333 263.828 7.52C263.828 6.66667 263.521 5.94667 262.908 5.36C262.321 4.74667 261.601 4.44 260.748 4.44C259.921 4.44 259.214 4.74667 258.628 5.36C258.041 5.94667 257.748 6.66667 257.748 7.52C257.748 8.37333 258.041 9.09333 258.628 9.68C259.214 10.2667 259.921 10.56 260.748 10.56C261.601 10.56 262.321 10.2667 262.908 9.68Z" fill="black"/>
<path d="M72.1724 48.1099C71.855 48.1099 71.6963 48.0195 71.6963 47.8389C71.6963 47.6973 71.7842 47.6265 71.96 47.6265L72.3188 47.6631C72.6118 47.6631 72.8096 47.4995 72.9121 47.1724C72.9951 46.894 73.0366 46.396 73.0366 45.6782V40.5073C73.0366 39.7896 73.0024 39.3208 72.9341 39.1011C72.8657 38.8765 72.7827 38.7251 72.6851 38.647C72.5923 38.564 72.4702 38.5225 72.3188 38.5225L71.96 38.5518C71.7842 38.5518 71.6963 38.481 71.6963 38.3394C71.6963 38.1587 71.8306 38.0684 72.0991 38.0684C72.3677 38.0684 72.6216 38.0879 72.8608 38.127C73.105 38.166 73.3735 38.1855 73.6665 38.1855C73.9644 38.1855 74.2256 38.166 74.4502 38.127C74.6797 38.0879 74.8799 38.0684 75.0508 38.0684C76.0957 38.0684 76.9404 38.3857 77.585 39.0205C78.1709 39.6016 78.4639 40.3022 78.4639 41.1226C78.4639 41.8794 78.1709 42.5386 77.585 43.1001C77.0088 43.647 76.3496 43.9204 75.6074 43.9204C75.0361 43.9204 74.6455 43.8081 74.4355 43.5835C74.3721 43.5151 74.3403 43.4419 74.3403 43.3638C74.3403 43.2808 74.3623 43.2197 74.4062 43.1807C74.4551 43.1367 74.5137 43.1147 74.582 43.1147C74.6504 43.1147 74.7456 43.1611 74.8677 43.2539C75.0581 43.3906 75.2949 43.459 75.5781 43.459C75.8613 43.459 76.1006 43.4053 76.2959 43.2979C76.4961 43.1855 76.6646 43.0293 76.8013 42.8291C77.0845 42.4141 77.2261 41.855 77.2261 41.1519C77.2261 40.3608 77.0063 39.731 76.5669 39.2622C76.1421 38.8081 75.5903 38.5811 74.9116 38.5811C74.6626 38.5811 74.4795 38.6152 74.3623 38.6836C74.2451 38.752 74.1865 38.8691 74.1865 39.0352V45.6782C74.1865 46.4155 74.2183 46.8916 74.2817 47.1064C74.3501 47.3164 74.4307 47.4629 74.5234 47.5459C74.6211 47.624 74.748 47.6631 74.9043 47.6631L75.2559 47.6265C75.4316 47.6265 75.5195 47.6973 75.5195 47.8389C75.5195 48.0195 75.3633 48.1099 75.0508 48.1099C74.8896 48.1099 74.7188 48.0952 74.5381 48.0659C73.9521 47.9731 73.4492 47.9561 73.0293 48.0146C72.6143 48.0781 72.3286 48.1099 72.1724 48.1099ZM83.459 44.748C83.459 44.2744 83.5444 43.8154 83.7153 43.3711C83.8862 42.9268 84.1279 42.5361 84.4404 42.1992C85.124 41.4619 85.9761 41.0933 86.9966 41.0933C88.1294 41.0933 89.001 41.4326 89.6113 42.1113C90.1631 42.7266 90.439 43.5249 90.439 44.5063C90.439 45.4976 90.1094 46.3545 89.4502 47.0771C88.7764 47.8145 87.9268 48.1831 86.9014 48.1831C85.7686 48.1831 84.8994 47.8438 84.2939 47.165C83.7373 46.5498 83.459 45.7441 83.459 44.748ZM84.6968 44.4404C84.6968 44.9189 84.7627 45.3657 84.8945 45.7808C85.0264 46.1958 85.207 46.54 85.4365 46.8135C85.8906 47.3701 86.4644 47.6484 87.1577 47.6484C87.7729 47.6484 88.2734 47.4043 88.6592 46.916C89.0596 46.4082 89.2598 45.7539 89.2598 44.9531C89.2598 43.8936 89.0156 43.0635 88.5273 42.4629C88.0684 41.9111 87.4922 41.6353 86.7988 41.6353C86.1836 41.6353 85.6831 41.8794 85.2974 42.3677C84.897 42.8755 84.6968 43.5664 84.6968 44.4404ZM95.6685 48.1099C95.3413 48.1099 95.1777 48.0195 95.1777 47.8389C95.1777 47.6973 95.2681 47.6265 95.4487 47.6265L95.8149 47.6631C95.9272 47.6631 96.02 47.6436 96.0933 47.6045C96.1665 47.5605 96.2227 47.4702 96.2617 47.3335C96.3398 47.0845 96.3789 46.5327 96.3789 45.6782V43.4883C96.3789 42.9902 96.3472 42.6802 96.2837 42.5581C96.2251 42.4312 96.1519 42.3457 96.064 42.3018C95.981 42.2529 95.8418 42.2139 95.6465 42.1846C95.4561 42.1553 95.3608 42.0796 95.3608 41.9575C95.3608 41.8452 95.4854 41.7646 95.7344 41.7158C96.3154 41.5938 96.7158 41.4717 96.9355 41.3496C97.2334 41.1787 97.436 41.0933 97.5435 41.0933C97.6558 41.0933 97.7119 41.1494 97.7119 41.2617C97.7119 41.3154 97.6997 41.3716 97.6753 41.4302C97.6558 41.4888 97.6338 41.5596 97.6094 41.6426C97.5703 41.8086 97.541 42.1211 97.5215 42.5801C97.9463 41.8672 98.459 41.4229 99.0596 41.2471C99.2354 41.1934 99.4307 41.1665 99.6455 41.1665C99.8652 41.1665 100.058 41.2446 100.224 41.4009C100.395 41.5571 100.48 41.7231 100.48 41.8989C100.48 42.0747 100.461 42.2041 100.422 42.2871C100.383 42.3701 100.334 42.4409 100.275 42.4995C100.148 42.6265 100.034 42.6899 99.9312 42.6899C99.8335 42.6899 99.7578 42.6655 99.7041 42.6167C99.6504 42.563 99.5894 42.4678 99.521 42.3311C99.3989 42.0869 99.2622 41.9648 99.1108 41.9648C98.9595 41.9648 98.8154 41.999 98.6787 42.0674C98.542 42.1309 98.4053 42.2285 98.2686 42.3604C97.9707 42.6387 97.7192 43.0171 97.5142 43.4956V45.6782C97.5142 46.606 97.5386 47.1528 97.5874 47.3188C97.6411 47.48 97.7046 47.5776 97.7778 47.6118C97.856 47.6411 97.9609 47.6558 98.0928 47.6558L98.7446 47.5972C98.8423 47.5972 98.9204 47.6216 98.979 47.6704C99.0376 47.7144 99.0669 47.7705 99.0669 47.8389C99.0669 48.0195 98.8887 48.1099 98.5322 48.1099L96.9868 48C96.7378 48 96.501 48.0171 96.2764 48.0513C96.0566 48.0903 95.854 48.1099 95.6685 48.1099ZM109.182 41.8184C109.182 41.9502 109.104 42.0161 108.947 42.0161L106.867 41.9941V46.0518C106.867 46.8086 107.05 47.2578 107.417 47.3994C107.529 47.4434 107.661 47.4653 107.812 47.4653C107.963 47.4653 108.1 47.4409 108.222 47.3921C108.349 47.3384 108.461 47.2822 108.559 47.2236C108.657 47.165 108.74 47.1113 108.808 47.0625C108.876 47.0088 108.94 46.9819 108.999 46.9819C109.062 46.9819 109.118 47.0161 109.167 47.0845C109.216 47.1528 109.24 47.2212 109.24 47.2896C109.24 47.4604 109.023 47.6655 108.588 47.9048C108.256 48.0903 107.839 48.1831 107.336 48.1831C106.833 48.1831 106.44 48.0049 106.157 47.6484C105.874 47.2871 105.732 46.7891 105.732 46.1543V41.9722H105.285C104.934 41.9722 104.758 41.8818 104.758 41.7012C104.758 41.5693 104.855 41.479 105.051 41.4302C105.246 41.3813 105.415 41.2959 105.556 41.1738C105.698 41.0469 105.812 40.9053 105.9 40.749C105.993 40.5879 106.066 40.4219 106.12 40.251C106.174 40.0801 106.223 39.9238 106.267 39.7822C106.374 39.46 106.496 39.2988 106.633 39.2988C106.789 39.2988 106.867 39.438 106.867 39.7163V41.3716L108.925 41.3276C109.028 41.3276 109.108 41.4497 109.167 41.6938C109.177 41.7476 109.182 41.7891 109.182 41.8184ZM114.506 48.1099C114.179 48.1099 114.016 48.0195 114.016 47.8389C114.016 47.6973 114.106 47.6265 114.287 47.6265L114.58 47.6631C114.692 47.6631 114.782 47.6436 114.851 47.6045C114.924 47.5605 114.978 47.4702 115.012 47.3335C115.075 47.104 115.107 46.5522 115.107 45.6782V41.855L114.418 41.8403C114.335 41.8403 114.294 41.7939 114.294 41.7012C114.294 41.5205 114.323 41.4033 114.382 41.3496C114.445 41.291 114.497 41.2617 114.536 41.2617H115.107V41.2397C115.107 39.1938 115.537 37.9219 116.396 37.4238C116.694 37.248 117.05 37.1602 117.465 37.1602C117.822 37.1602 118.088 37.1992 118.264 37.2773C118.444 37.3506 118.576 37.4116 118.659 37.4604C118.742 37.5044 118.82 37.5557 118.894 37.6143C119.06 37.7607 119.143 37.9048 119.143 38.0464C119.143 38.1831 119.096 38.293 119.003 38.376C118.911 38.4541 118.818 38.4932 118.725 38.4932C118.632 38.4932 118.559 38.4907 118.505 38.4858C118.452 38.4761 118.396 38.4541 118.337 38.4199C118.22 38.3564 118.105 38.2637 117.993 38.1416C117.885 38.0146 117.812 37.9316 117.773 37.8926C117.739 37.8486 117.697 37.812 117.648 37.7827C117.536 37.7192 117.38 37.6875 117.18 37.6875C116.984 37.6875 116.828 37.7583 116.711 37.8999C116.599 38.0366 116.511 38.249 116.447 38.5371C116.35 39.001 116.301 39.8652 116.301 41.1299V41.2617H117.839C117.995 41.2617 118.073 41.3276 118.073 41.4595C118.073 41.6157 118.039 41.7305 117.971 41.8037C117.907 41.8721 117.856 41.9062 117.817 41.9062L116.301 41.877V45.6636C116.301 46.5669 116.33 47.1064 116.389 47.2822C116.447 47.458 116.516 47.563 116.594 47.5972C116.677 47.6313 116.784 47.6484 116.916 47.6484L117.641 47.5972C117.861 47.5972 117.971 47.6826 117.971 47.8535C117.971 48.0244 117.792 48.1099 117.436 48.1099L115.751 48C115.502 48 115.273 48.0171 115.063 48.0513C114.858 48.0903 114.672 48.1099 114.506 48.1099ZM122.863 44.748C122.863 44.2744 122.949 43.8154 123.12 43.3711C123.291 42.9268 123.532 42.5361 123.845 42.1992C124.528 41.4619 125.38 41.0933 126.401 41.0933C127.534 41.0933 128.405 41.4326 129.016 42.1113C129.567 42.7266 129.843 43.5249 129.843 44.5063C129.843 45.4976 129.514 46.3545 128.854 47.0771C128.181 47.8145 127.331 48.1831 126.306 48.1831C125.173 48.1831 124.304 47.8438 123.698 47.165C123.142 46.5498 122.863 45.7441 122.863 44.748ZM124.101 44.4404C124.101 44.9189 124.167 45.3657 124.299 45.7808C124.431 46.1958 124.611 46.54 124.841 46.8135C125.295 47.3701 125.869 47.6484 126.562 47.6484C127.177 47.6484 127.678 47.4043 128.063 46.916C128.464 46.4082 128.664 45.7539 128.664 44.9531C128.664 43.8936 128.42 43.0635 127.932 42.4629C127.473 41.9111 126.896 41.6353 126.203 41.6353C125.588 41.6353 125.087 41.8794 124.702 42.3677C124.301 42.8755 124.101 43.5664 124.101 44.4404ZM135.109 48.1099C134.787 48.1099 134.626 48.0195 134.626 47.8389C134.626 47.6973 134.716 47.6265 134.897 47.6265L135.263 47.6631C135.375 47.6631 135.468 47.6436 135.542 47.6045C135.615 47.5605 135.671 47.4702 135.71 47.3335C135.788 47.0845 135.827 46.5327 135.827 45.6782V40.2217C135.827 39.4111 135.659 38.9814 135.322 38.9326C135.078 38.8936 134.956 38.813 134.956 38.6909C134.956 38.5786 135.07 38.5005 135.3 38.4565C135.529 38.4077 135.737 38.3491 135.922 38.2808C136.108 38.2075 136.271 38.1392 136.413 38.0757C136.555 38.0073 136.674 37.9487 136.772 37.8999C136.875 37.8511 136.948 37.8267 136.992 37.8267C137.104 37.8267 137.16 37.8828 137.16 37.9951C137.16 38.0488 137.15 38.105 137.131 38.1636C137.028 38.4272 136.975 38.7617 136.97 39.167C136.965 39.5723 136.962 39.9043 136.962 40.1631V45.6782C136.962 46.5327 136.992 47.0576 137.05 47.2529C137.109 47.4434 137.175 47.5605 137.248 47.6045C137.321 47.6436 137.414 47.6631 137.526 47.6631L137.893 47.6265C138.073 47.6265 138.164 47.6973 138.164 47.8389C138.164 48.0195 138.002 48.1099 137.68 48.1099C137.495 48.1099 137.302 48.0903 137.102 48.0513C136.901 48.0171 136.672 48 136.413 48C136.154 48 135.917 48.0171 135.703 48.0513C135.493 48.0903 135.295 48.1099 135.109 48.1099ZM145.385 38.9106C145.385 39.1157 145.314 39.2915 145.173 39.438C145.036 39.5796 144.848 39.6504 144.609 39.6504C144.375 39.6504 144.191 39.582 144.06 39.4453C143.933 39.3037 143.869 39.1523 143.869 38.9912C143.869 38.8252 143.891 38.6982 143.935 38.6104C143.979 38.5225 144.035 38.4468 144.104 38.3833C144.255 38.2515 144.438 38.1855 144.653 38.1855C144.873 38.1855 145.048 38.2539 145.18 38.3906C145.317 38.5273 145.385 38.7007 145.385 38.9106ZM143.371 48.1099C143.044 48.1099 142.88 48.0195 142.88 47.8389C142.88 47.6973 142.971 47.6265 143.151 47.6265L143.518 47.6631C143.63 47.6631 143.723 47.6436 143.796 47.6045C143.869 47.5605 143.928 47.4702 143.972 47.3335C144.05 47.0894 144.089 46.5376 144.089 45.6782V43.4736C144.089 42.9902 144.055 42.6851 143.986 42.5581C143.923 42.4263 143.85 42.3384 143.767 42.2944C143.684 42.2456 143.544 42.209 143.349 42.1846C143.159 42.1553 143.063 42.0771 143.063 41.9502C143.063 41.8379 143.19 41.7549 143.444 41.7012C144.025 41.584 144.426 41.4644 144.646 41.3423C144.948 41.1714 145.156 41.0859 145.268 41.0859C145.38 41.0859 145.437 41.1421 145.437 41.2544C145.437 41.3081 145.427 41.3643 145.407 41.4229C145.295 41.7598 145.239 42.4238 145.239 43.415V45.6782C145.239 46.5376 145.268 47.0625 145.327 47.2529C145.39 47.4434 145.458 47.5605 145.532 47.6045C145.605 47.6436 145.698 47.6631 145.81 47.6631L146.176 47.6265C146.357 47.6265 146.447 47.6973 146.447 47.8389C146.447 48.0195 146.284 48.1099 145.957 48.1099C145.771 48.1099 145.571 48.0903 145.356 48.0513C145.146 48.0171 144.919 48 144.675 48C144.431 48 144.199 48.0171 143.979 48.0513C143.759 48.0903 143.557 48.1099 143.371 48.1099ZM151.091 44.748C151.091 44.2744 151.176 43.8154 151.347 43.3711C151.518 42.9268 151.76 42.5361 152.072 42.1992C152.756 41.4619 153.608 41.0933 154.628 41.0933C155.761 41.0933 156.633 41.4326 157.243 42.1113C157.795 42.7266 158.071 43.5249 158.071 44.5063C158.071 45.4976 157.741 46.3545 157.082 47.0771C156.408 47.8145 155.559 48.1831 154.533 48.1831C153.4 48.1831 152.531 47.8438 151.926 47.165C151.369 46.5498 151.091 45.7441 151.091 44.748ZM152.329 44.4404C152.329 44.9189 152.395 45.3657 152.526 45.7808C152.658 46.1958 152.839 46.54 153.068 46.8135C153.522 47.3701 154.096 47.6484 154.79 47.6484C155.405 47.6484 155.905 47.4043 156.291 46.916C156.691 46.4082 156.892 45.7539 156.892 44.9531C156.892 43.8936 156.647 43.0635 156.159 42.4629C155.7 41.9111 155.124 41.6353 154.431 41.6353C153.815 41.6353 153.315 41.8794 152.929 42.3677C152.529 42.8755 152.329 43.5664 152.329 44.4404Z" fill="#0092D8"/>
</svg>
